<?xml version="1.0" encoding="UTF-8" standalone="no"?>
<svg xmlns="http://www.w3.org/2000/svg" xml:space="preserve" width="438.35992" height="328.86865">
  <path fill="#fff" stroke="#5151a3" stroke-linejoin="round" stroke-width="32" d="M216.89066 26C113.74095 26 26 88.39696 26 160.27102c0 42.91286 44.79691 84.38204 90.80077 108.10725-11.93293 11.17364-21.384837 20.58103-39.25277 34.32204 56.07818 2.34062 80.44888-20.03189 87.81128-22.70913 14.97944 2.69916 39.19383 2.70399 55.37734 2.89413 96.28183 1.14463 191.6233-53.60188 191.6233-125.47592C412.35992 85.53533 320.04038 26 216.89066 26Z"/>
  <path fill="#9268fa" stroke="#9268fa" stroke-linecap="round" stroke-linejoin="round" d="M216.89066 26C113.74095 26 26 88.39696 26 160.27102c0 42.91286 44.79691 84.38204 90.80077 108.10725-11.93293 11.17364-21.384837 20.58103-39.25277 34.32204 62.31986.0709 87.81128-22.70913 87.81128-22.70913 14.97944 2.69916 39.19383 2.70399 55.37734 2.89413 96.28183 1.14463 191.6233-53.60188 191.6233-125.47592C412.35992 85.53533 320.04038 26 216.89066 26Z"/>
  <path fill="#fff" d="M288.02325 92.46958c.005 48.11121-53.45234 44.84945-53.44906 78.11136l.00019.17973c.00038 3.8372-3.10963 6.94783-6.94685 6.9482l-29.16689.003c-3.83721.00037-6.94784-3.10964-6.94822-6.94686l-.0002-1.96192c-.005-51.3777 46.91849-48.1153 46.91612-72.1709-.001-10.39428-7.72314-16.63019-20.49336-16.62894-10.38894.001-21.00474 4.54479-30.65463 13.83015-2.47305 2.37938-6.34019 2.53007-9.04314.41594L159.05395 79.2479c-3.23306-2.52807-3.60847-7.31945-.75092-10.26584 16.01262-16.51059 36.82161-26.39612 64.38014-26.39883 43.65567-.004 65.33765 23.45545 65.34026 49.88644zm-47.50374 139.28851c.001 14.84929-11.87645 27.02643-27.02205 27.02792-14.84928.001-27.02644-12.1733-27.02792-27.02258-.001-14.84874 12.17331-27.0259 27.02259-27.02738 15.14614-.001 27.02591 12.1733 27.02738 27.02204z"/>
</svg>